<svg width="13" height="13" viewBox="0 0 13 13" fill="none" xmlns="http://www.w3.org/2000/svg">
<path d="M13 9.1V2.275C13 1.01636 11.9836 0 10.725 0H2.275C1.01636 0 0 1.01636 0 2.275V10.725C0 11.9836 1.01636 13 2.275 13H9.1L13 9.1ZM2.275 11.7C1.73727 11.7 1.3 11.2627 1.3 10.725V2.275C1.3 1.73727 1.73727 1.3 2.275 1.3H10.725C11.2627 1.3 11.7 1.73727 11.7 2.275V8.45H10.725C9.46636 8.45 8.45 9.46636 8.45 10.725V11.7H2.275ZM5.04636 5.05818C4.875 4.45545 4.24864 4.10091 3.64591 4.27227C3.04318 4.44364 2.68864 5.07 2.86 5.67864C2.90727 5.84409 2.99 5.99182 3.09636 6.11591L5.07 5.56045C5.09955 5.395 5.09364 5.22364 5.04636 5.05818ZM9.11182 3.91182C8.94636 3.30909 8.31409 2.95455 7.71136 3.12591C7.10864 3.29727 6.75409 3.92364 6.92545 4.53227C6.97273 4.69773 7.05545 4.84545 7.16182 4.96955L9.13545 4.41409C9.165 4.24864 9.15909 4.07727 9.11182 3.91182ZM9.69091 5.94455L3.42727 7.71136C4.27227 8.82818 5.73773 9.37182 7.16182 8.97C8.58591 8.56818 9.54909 7.33318 9.69091 5.94455Z" fill="#E6E0E9"/>
</svg>
