<svg width="15" height="14" viewBox="0 0 15 14" fill="none" xmlns="http://www.w3.org/2000/svg">
<path d="M15 9.8V2.45C15 1.09455 13.8273 0 12.375 0H2.625C1.17273 0 0 1.09455 0 2.45V11.55C0 12.9055 1.17273 14 2.625 14H10.5L15 9.8ZM2.625 12.6C2.00455 12.6 1.5 12.1291 1.5 11.55V2.45C1.5 1.87091 2.00455 1.4 2.625 1.4H12.375C12.9955 1.4 13.5 1.87091 13.5 2.45V9.1H12.375C10.9227 9.1 9.75 10.1945 9.75 11.55V12.6H2.625ZM5.82273 5.44727C5.625 4.79818 4.90227 4.41636 4.20682 4.60091C3.51136 4.78545 3.10227 5.46 3.3 6.11545C3.35455 6.29364 3.45 6.45273 3.57273 6.58636L5.85 5.98818C5.88409 5.81 5.87727 5.62545 5.82273 5.44727ZM10.5136 4.21273C10.3227 3.56364 9.59318 3.18182 8.89773 3.36636C8.20227 3.55091 7.79318 4.22545 7.99091 4.88091C8.04545 5.05909 8.14091 5.21818 8.26364 5.35182L10.5409 4.75364C10.575 4.57546 10.5682 4.39091 10.5136 4.21273ZM11.1818 6.40182L3.95455 8.30455C4.92955 9.50727 6.62045 10.0927 8.26364 9.66C9.90682 9.22727 11.0182 7.89727 11.1818 6.40182Z" fill="#E6E0E9"/>
</svg>
