<svg width="25" height="24" viewBox="0 0 25 24" fill="none" xmlns="http://www.w3.org/2000/svg">
<path d="M19.93 12.98C19.97 12.66 20 12.34 20 12C20 11.66 19.97 11.34 19.93 11.02L22.04 9.37C22.23 9.22 22.28 8.95 22.16 8.73L20.16 5.27C20.04 5.05 19.77 4.97 19.55 5.05L17.06 6.05C16.54 5.65 15.98 5.32 15.37 5.07L14.99 2.42C14.96 2.18 14.75 2 14.5 2H10.5C10.25 2 10.04 2.18 10.01 2.42L9.63002 5.07C9.02002 5.32 8.46002 5.66 7.94002 6.05L5.45002 5.05C5.22002 4.96 4.96002 5.05 4.84002 5.27L2.84002 8.73C2.71002 8.95 2.77002 9.22 2.96002 9.37L5.07002 11.02C5.03002 11.34 5.00002 11.67 5.00002 12C5.00002 12.33 5.03002 12.66 5.07002 12.98L2.96002 14.63C2.77002 14.78 2.72002 15.05 2.84002 15.27L4.84002 18.73C4.96002 18.95 5.23002 19.03 5.45002 18.95L7.94002 17.95C8.46002 18.35 9.02002 18.68 9.63002 18.93L10.01 21.58C10.04 21.82 10.25 22 10.5 22H14.5C14.75 22 14.96 21.82 14.99 21.58L15.37 18.93C15.98 18.68 16.54 18.34 17.06 17.95L19.55 18.95C19.78 19.04 20.04 18.95 20.16 18.73L22.16 15.27C22.28 15.05 22.23 14.78 22.04 14.63L19.93 12.98ZM12.5 15.5C10.57 15.5 9.00002 13.93 9.00002 12C9.00002 10.07 10.57 8.5 12.5 8.5C14.43 8.5 16 10.07 16 12C16 13.93 14.43 15.5 12.5 15.5Z" fill="#381E72"/>
</svg>
