<svg width="1100" height="642" viewBox="0 0 1100 642" fill="none" xmlns="http://www.w3.org/2000/svg">
<path d="M0 48.3C0 31.2153 0 22.6729 3.3776 16.1708C6.22386 10.6915 10.6915 6.22386 16.1708 3.3776C22.6729 0 31.2153 0 48.3 0H1051.7C1068.78 0 1077.33 0 1083.83 3.3776C1089.31 6.22386 1093.78 10.6915 1096.62 16.1708C1100 22.6729 1100 31.2153 1100 48.3V593.7C1100 610.785 1100 619.327 1096.62 625.829C1093.78 631.308 1089.31 635.776 1083.83 638.622C1077.33 642 1068.78 642 1051.7 642H48.3C31.2153 642 22.6729 642 16.1708 638.622C10.6915 635.776 6.22386 631.308 3.3776 625.829C0 619.327 0 610.785 0 593.7V48.3Z" fill="#443D4F"/>
</svg>
